<?xml version="1.0" standalone="no"?>
<!DOCTYPE svg PUBLIC "-//W3C//DTD SVG 20010904//EN"
 "http://www.w3.org/TR/2001/REC-SVG-20010904/DTD/svg10.dtd">
<svg version="1.0" xmlns="http://www.w3.org/2000/svg"
 width="1280.000000pt" height="1105.000000pt" viewBox="0 0 1280.000000 1105.000000"
 preserveAspectRatio="xMidYMid meet">

<g transform="translate(0.000000,1105.000000) scale(0.100000,-0.100000)"
fill="#000000" stroke="none">
<path d="M12105 6208 c-599 -303 -1232 -535 -1807 -663 -483 -108 -916 -152
-1393 -142 -430 10 -656 30 -1366 122 -751 97 -1068 122 -1439 112 -748 -19
-1380 -184 -2110 -549 -757 -378 -1506 -911 -2405 -1712 -277 -247 -969 -905
-979 -931 -2 -7 86 34 197 91 669 342 1298 552 1922 643 291 42 476 54 815 54
451 0 700 -22 1503 -133 790 -110 1055 -133 1482 -133 283 0 415 8 660 39
1279 162 2557 875 4080 2274 278 255 1049 1023 1024 1019 -2 0 -85 -41 -184
-91z"/>
<path d="M11533 2419 c-133 -26 -214 -149 -184 -283 13 -58 63 -126 111 -151
124 -64 276 -21 337 94 27 51 32 151 10 204 -43 102 -158 159 -274 136z m108
-51 c82 -27 129 -92 129 -178 0 -127 -115 -214 -237 -181 -106 29 -160 129
-128 237 30 101 136 156 236 122z"/>
<path d="M11490 2190 l0 -130 35 0 c35 0 35 0 35 45 0 25 4 45 8 45 4 0 18
-20 30 -45 21 -43 23 -45 67 -45 l45 0 -31 51 -31 50 21 23 c25 27 28 78 4
101 -25 26 -59 35 -124 35 l-59 0 0 -130z m124 49 c13 -11 -12 -39 -35 -39
-15 0 -19 7 -19 31 0 27 3 30 23 24 12 -4 26 -11 31 -16z"/>
<path d="M9851 2244 c-153 -41 -279 -160 -330 -312 -28 -81 -29 -216 -2 -301
79 -253 368 -395 636 -313 213 65 345 242 345 463 0 222 -156 419 -371 468
-63 15 -215 12 -278 -5z m213 -228 c65 -20 112 -58 141 -117 35 -67 41 -124
21 -190 -32 -110 -114 -173 -226 -173 -129 0 -223 87 -237 219 -12 112 61 227
164 259 62 19 80 19 137 2z"/>
<path d="M10849 2245 c-71 -23 -140 -74 -174 -129 -25 -41 -30 -62 -34 -124
-8 -170 52 -235 293 -316 102 -34 123 -45 134 -68 29 -62 -33 -106 -131 -93
-68 10 -170 41 -229 71 l-48 24 0 -124 0 -124 38 -15 c151 -60 353 -67 472
-16 62 26 141 110 158 166 15 49 16 145 2 194 -23 83 -134 163 -290 209 -129
38 -159 65 -127 114 36 54 166 36 365 -51 10 -4 12 21 10 118 l-3 123 -75 24
c-96 31 -289 40 -361 17z"/>
<path d="M570 1780 l0 -470 315 0 315 0 0 110 0 110 -180 0 -180 0 0 80 0 80
145 0 145 0 0 105 0 105 -145 0 -145 0 0 65 0 65 170 0 170 0 0 110 0 110
-305 0 -305 0 0 -470z"/>
<path d="M1370 1780 l0 -470 125 0 125 0 0 267 0 268 36 -55 c81 -122 196
-280 203 -280 5 0 61 75 125 167 l116 166 0 -266 0 -267 130 0 130 0 0 470 0
471 -127 -3 -127 -3 -117 -165 c-64 -91 -120 -164 -125 -163 -5 2 -61 76 -124
165 l-115 163 -128 3 -127 3 0 -471z"/>
<path d="M2560 1781 l0 -471 135 0 135 0 0 159 0 158 108 6 c133 7 213 33 277
89 60 53 87 107 93 189 8 122 -39 219 -134 275 -82 48 -132 56 -381 61 l-233
5 0 -471z m420 246 c50 -17 77 -74 61 -128 -15 -49 -47 -67 -140 -75 l-71 -7
0 112 0 111 58 -1 c31 0 73 -5 92 -12z"/>
<path d="M3470 1780 l0 -470 130 0 130 0 2 178 c3 169 4 177 23 177 15 0 44
-41 124 -177 l103 -178 150 0 c116 0 148 3 142 13 -4 6 -56 89 -116 184 -59
95 -111 179 -114 187 -3 9 3 17 16 21 34 11 99 74 121 117 45 89 31 225 -31
300 -39 47 -136 94 -220 108 -36 5 -154 10 -262 10 l-198 0 0 -470z m415 246
c38 -16 55 -42 55 -85 0 -68 -35 -91 -140 -91 l-70 0 0 95 0 95 60 0 c33 0 76
-6 95 -14z"/>
<path d="M4380 1780 l0 -470 315 0 315 0 0 110 0 110 -180 0 -180 0 0 80 0 80
145 0 145 0 0 105 0 105 -145 0 -145 0 0 65 0 65 175 0 175 0 0 110 0 110
-310 0 -310 0 0 -470z"/>
<path d="M5180 1780 l0 -470 125 0 125 0 2 270 3 271 115 -158 c63 -87 152
-209 198 -270 l83 -113 125 0 124 0 0 470 0 470 -125 0 -125 0 -2 -271 -3
-272 -199 272 -199 271 -123 0 -124 0 0 -470z"/>
<path d="M6280 1781 l0 -471 194 0 c225 0 339 16 436 61 153 71 240 218 240
404 0 142 -46 260 -130 339 -108 101 -206 126 -512 133 l-228 6 0 -472z m441
228 c118 -30 185 -149 160 -286 -15 -76 -49 -125 -106 -153 -49 -24 -191 -48
-219 -37 -14 6 -16 33 -16 245 0 131 3 242 8 246 8 9 119 -1 173 -15z"/>
<path d="M7383 1797 c-101 -248 -186 -460 -189 -470 -6 -16 3 -17 131 -15
l137 3 32 90 32 90 165 3 165 2 30 -92 30 -93 147 -3 146 -3 -175 433 c-97
238 -182 450 -191 471 l-15 37 -132 0 -131 0 -182 -453z m356 36 c23 -68 41
-127 41 -133 0 -6 -36 -10 -91 -10 -69 0 -90 3 -86 13 2 6 24 67 47 135 24 67
44 121 46 120 1 -2 21 -58 43 -125z"/>
<path d="M8340 1780 l0 -470 125 0 125 0 2 260 3 260 115 -165 115 -165 20 25
c11 13 63 87 115 164 52 77 98 140 103 141 4 0 7 -117 7 -260 l0 -260 130 0
130 0 0 470 0 470 -127 0 -128 -1 -119 -170 c-78 -113 -122 -167 -128 -161 -6
6 -61 82 -122 169 l-112 158 -127 3 -127 3 0 -471z"/>
</g>
</svg>
